<svg width="20" height="20" viewBox="0 0 20 20" fill="none" xmlns="http://www.w3.org/2000/svg">
<path fill-rule="evenodd" clip-rule="evenodd" d="M5.22032 8.21991C5.36094 8.07946 5.55157 8.00057 5.75032 8.00057C5.94907 8.00057 6.13969 8.07946 6.28032 8.21991L10.0003 11.9399L13.7203 8.21991C13.789 8.14622 13.8718 8.08712 13.9638 8.04613C14.0558 8.00513 14.1551 7.98309 14.2558 7.98132C14.3565 7.97954 14.4565 7.99806 14.5499 8.03578C14.6433 8.07351 14.7281 8.12965 14.7994 8.20087C14.8706 8.27209 14.9267 8.35692 14.9644 8.45031C15.0022 8.5437 15.0207 8.64373 15.0189 8.74443C15.0171 8.84513 14.9951 8.94445 14.9541 9.03645C14.9131 9.12844 14.854 9.21124 14.7803 9.27991L10.5303 13.5299C10.3897 13.6704 10.1991 13.7493 10.0003 13.7493C9.80157 13.7493 9.61094 13.6704 9.47032 13.5299L5.22032 9.27991C5.07987 9.13928 5.00098 8.94866 5.00098 8.74991C5.00098 8.55116 5.07987 8.36053 5.22032 8.21991Z" fill="black"/>
</svg>
