<svg width="24" height="24" viewBox="0 0 24 24" fill="none" xmlns="http://www.w3.org/2000/svg">
<path fill-rule="evenodd" clip-rule="evenodd" d="M12 2C12.5523 2 13 2.44772 13 3V4.05504C15.1743 4.30168 16.6649 5.35082 17.6116 6.6657C18.6602 8.1222 19 9.83998 19 11V14.5858L20.7071 16.2929C20.9931 16.5789 21.0787 17.009 20.9239 17.3827C20.7691 17.7564 20.4045 18 20 18H16C16 18.66 15.8102 19.6278 15.2116 20.4593C14.5762 21.3418 13.5259 22 12 22C10.4741 22 9.42389 21.3418 8.78849 20.4593C8.18981 19.6278 8.00003 18.66 8.00003 18H4.00003C3.59557 18 3.23093 17.7564 3.07615 17.3827C2.92137 17.009 3.00692 16.5789 3.29292 16.2929L5.00003 14.5858V11C5.00003 8.27408 6.15823 6.47386 7.66572 5.38847C8.74477 4.61155 9.96721 4.22372 11 4.07488V3C11 2.44772 11.4477 2 12 2ZM10 18C10 18.34 10.1102 18.8722 10.4116 19.2907C10.6762 19.6582 11.1259 20 12 20C12.8741 20 13.3239 19.6582 13.5885 19.2907C13.8898 18.8722 14 18.34 14 18H10ZM8.83433 7.01153C7.84183 7.72614 7.00003 8.92592 7.00003 11V15C7.00003 15.2652 6.89467 15.5196 6.70714 15.7071L6.41424 16H17.5858L17.2929 15.7071C17.1054 15.5196 17 15.2652 17 15V11C17 10.16 16.7398 8.8778 15.9885 7.8343C15.2739 6.8418 14.0741 6 12 6C11.1601 6 9.87783 6.26022 8.83433 7.01153Z" fill="#767A87"/>
</svg>
