<svg width="20" height="20" viewBox="0 0 20 20" fill="none" xmlns="http://www.w3.org/2000/svg">
<path fill-rule="evenodd" clip-rule="evenodd" d="M4.29289 4.29302C4.68342 3.90249 5.31658 3.90249 5.70711 4.29302L10 8.58591L14.2929 4.29302C14.6834 3.90249 15.3166 3.90249 15.7071 4.29302C16.0976 4.68354 16.0976 5.3167 15.7071 5.70723L11.4142 10.0001L15.7071 14.293C16.0976 14.6835 16.0976 15.3167 15.7071 15.7072C15.3166 16.0978 14.6834 16.0978 14.2929 15.7072L10 11.4143L5.70711 15.7072C5.31658 16.0978 4.68342 16.0978 4.29289 15.7072C3.90237 15.3167 3.90237 14.6835 4.29289 14.293L8.58579 10.0001L4.29289 5.70723C3.90237 5.3167 3.90237 4.68354 4.29289 4.29302Z" fill="#767A87"/>
</svg>
