<svg width="20" height="20" viewBox="0 0 20 20" fill="none" xmlns="http://www.w3.org/2000/svg">
<path fill-rule="evenodd" clip-rule="evenodd" d="M10.5302 15.2801C10.3895 15.4205 10.1989 15.4994 10.0002 15.4994C9.8014 15.4994 9.61078 15.4205 9.47015 15.2801L5.22015 11.0301C5.14647 10.9614 5.08736 10.8786 5.04637 10.7866C5.00538 10.6946 4.98334 10.5953 4.98156 10.4946C4.97978 10.3939 4.99831 10.2939 5.03603 10.2005C5.07375 10.1071 5.1299 10.0223 5.20112 9.95105C5.27233 9.87983 5.35717 9.82369 5.45056 9.78597C5.54394 9.74825 5.64397 9.72972 5.74468 9.7315C5.84538 9.73328 5.94469 9.75532 6.03669 9.79631C6.12869 9.8373 6.21149 9.8964 6.28015 9.97009L10.0002 13.6901L13.7202 9.97009C13.8623 9.83761 14.0504 9.76549 14.2447 9.76892C14.439 9.77234 14.6244 9.85106 14.7618 9.98847C14.8992 10.1259 14.9779 10.3113 14.9813 10.5056C14.9848 10.6999 14.9126 10.8879 14.7802 11.0301L10.5302 15.2801ZM14.7802 6.03009L10.5302 10.2801C10.3895 10.4205 10.1989 10.4994 10.0002 10.4994C9.8014 10.4994 9.61078 10.4205 9.47015 10.2801L5.22015 6.03009C5.08767 5.88792 5.01555 5.69987 5.01898 5.50557C5.02241 5.31127 5.10112 5.12588 5.23853 4.98847C5.37595 4.85106 5.56133 4.77234 5.75563 4.76892C5.94993 4.76549 6.13798 4.83761 6.28015 4.97009L10.0002 8.69009L13.7202 4.97009C13.8623 4.83761 14.0504 4.76549 14.2447 4.76892C14.439 4.77234 14.6244 4.85106 14.7618 4.98847C14.8992 5.12588 14.9779 5.31127 14.9813 5.50557C14.9848 5.69987 14.9126 5.88792 14.7802 6.03009Z" fill="black"/>
</svg>
