<svg width="20" height="20" viewBox="0 0 20 20" fill="none" xmlns="http://www.w3.org/2000/svg">
<path d="M10 1.66667C5.3975 1.66667 1.66666 5.39751 1.66666 10C1.66666 14.6025 5.1475 18.3333 9.75 18.3333C14.3525 18.3333 18.3333 14.6025 18.3333 10C18.3333 5.39751 14.6025 1.66667 10 1.66667ZM11.08 14.4167C11.08 14.6928 10.8561 14.9167 10.58 14.9167H9.41666C9.14052 14.9167 8.91666 14.6928 8.91666 14.4167V9.41667C8.91666 9.14053 9.14052 8.91667 9.41666 8.91667H10.58C10.8561 8.91667 11.08 9.14053 11.08 9.41667V14.4167ZM11.08 6.75C11.08 7.02615 10.8561 7.25 10.58 7.25H9.41666C9.14052 7.25 8.91666 7.02615 8.91666 6.75V5.58C8.91666 5.30386 9.14052 5.08 9.41666 5.08H10.58C10.8561 5.08 11.08 5.30386 11.08 5.58V6.75Z" fill="#767A87"/>
</svg>
