<svg width="20" height="20" viewBox="0 0 20 20" fill="none" xmlns="http://www.w3.org/2000/svg">
<path fill-rule="evenodd" clip-rule="evenodd" d="M10.4 5.80012C11.1732 5.80012 11.8 5.17332 11.8 4.40012C11.8 3.62692 11.1732 3.00012 10.4 3.00012C9.6268 3.00012 9 3.62692 9 4.40012C9 5.17332 9.6268 5.80012 10.4 5.80012ZM11.8 10.2001C11.8 10.9733 11.1732 11.6001 10.4 11.6001C9.6268 11.6001 9 10.9733 9 10.2001C9 9.42693 9.6268 8.80013 10.4 8.80013C11.1732 8.80013 11.8 9.42693 11.8 10.2001ZM11.8 16.0001C11.8 16.7733 11.1732 17.4001 10.4 17.4001C9.6268 17.4001 9 16.7733 9 16.0001C9 15.2269 9.6268 14.6001 10.4 14.6001C11.1732 14.6001 11.8 15.2269 11.8 16.0001Z" fill="#767A87"/>
</svg>
